<svg xmlns="http://www.w3.org/2000/svg" width="315" height="50" viewBox="0 0 315 50" fill="none"><path d="M24.6646 6.01358C33.323 6.01358 37.7757 9.73737 37.7757 15.2961C37.7756 15.8065 37.7356 16.3162 37.656 16.82C38.254 15.3559 38.5601 13.7828 38.556 12.1942C38.556 10.6306 38.2572 9.08238 37.6768 7.63783C37.0963 6.19329 36.2455 4.88074 35.1729 3.77513C34.1004 2.66953 32.8271 1.79251 31.4257 1.19416C30.0244 0.595809 28.5224 0.287842 27.0056 0.287842H0.209961V24.1005H7.74653V6.01358H24.6646Z" fill="#24356C"></path><path d="M29.7111 16.4166C29.7111 13.6128 27.5845 12.2354 23.6753 12.2354H15.71V20.6492H23.6878C27.5845 20.6492 29.7111 19.2229 29.7111 16.4166Z" fill="#24356C"></path><path d="M31.4438 31.1036C31.4438 28.0968 29.2174 26.668 25.0615 26.668H15.71V35.4904H25.064C29.2174 35.4904 31.4438 34.1644 31.4438 31.1036Z" fill="#3683BC"></path><path d="M35.3472 24.1519C37.935 25.7349 39.5056 28.3973 39.5056 31.9721C39.5056 38.1398 34.7563 41.712 25.6541 41.712H8.06543V49.8277H34.3973C37.7033 49.8277 40.874 48.4739 43.2117 46.0642C45.5494 43.6544 46.8627 40.3861 46.8627 36.9782C46.8662 33.7374 45.6815 30.6148 43.546 28.2363C41.4106 25.8577 38.482 24.3988 35.3472 24.1519Z" fill="#3683BC"></path><path d="M76.6704 13.7362V15.255C76.6704 19.6239 75.374 22.4174 72.487 23.8154C75.9624 25.2108 77.3161 28.4412 77.3161 32.9205V36.3822C77.3161 42.938 73.9604 46.4588 67.481 46.4588H57.2793V3.96289H67.0571C73.771 3.96289 76.6704 7.18041 76.6704 13.7362ZM63.7588 10.033V21.2635H66.2918C68.705 21.2635 70.1784 20.1713 70.1784 16.7713V14.4044C70.1784 11.3693 69.1812 10.0356 66.8801 10.0356L63.7588 10.033ZM63.7588 27.3361V40.3887H67.4685C69.6474 40.3887 70.8266 39.3607 70.8266 36.1997V32.4965C70.8266 28.5491 69.5801 27.3361 66.6458 27.3361H63.7588Z" fill="#24356C"></path><path d="M102.157 46.4588H95.6176L94.4982 38.7491H86.5503L85.4309 46.4588H79.4824L86.0791 3.96289H95.5528L102.157 46.4588ZM87.3755 32.9822H93.6082L90.4968 11.4901L87.3755 32.9822Z" fill="#24356C"></path><path d="M101.037 3.96289H121.062V10.033H114.29V46.4588H107.808V10.033H101.037V3.96289Z" fill="#24356C"></path><path d="M142.677 30.6128V36.2665C142.677 43.0639 139.379 46.9496 133.019 46.9496C126.659 46.9496 123.358 43.0639 123.358 36.2665V14.1654C123.358 7.36543 126.657 3.47974 133.019 3.47974C139.381 3.47974 142.677 7.36543 142.677 14.1654V18.2926H136.552V13.7362C136.552 10.7012 135.255 9.54727 133.194 9.54727C131.132 9.54727 129.838 10.7012 129.838 13.7362V36.6854C129.838 39.7205 131.134 40.8127 133.194 40.8127C135.253 40.8127 136.552 39.7205 136.552 36.6854V30.6128H142.677Z" fill="#24356C"></path><path d="M153.1 46.4588H146.618V3.96289H153.1V22.1732H160.462V3.96289H167.059V46.4588H160.462V28.2459H153.1V46.4588Z" fill="#24356C"></path><path d="M180.487 3.47705C186.787 3.47705 190.028 7.36274 190.028 14.1627V15.4913H183.903V13.7361C183.903 10.701 182.723 9.54716 180.662 9.54716C178.6 9.54716 177.421 10.701 177.421 13.7361C177.421 22.4738 190.083 24.1185 190.083 36.2613C190.083 43.0587 186.785 46.9444 180.425 46.9444C174.065 46.9444 170.767 43.0587 170.767 36.2613V33.6503H176.892V36.6853C176.892 39.7204 178.188 40.8126 180.25 40.8126C182.312 40.8126 183.608 39.7204 183.608 36.6853C183.608 27.9477 170.944 26.3029 170.944 14.1627C170.944 7.36274 174.185 3.47705 180.487 3.47705Z" fill="#3683BC"></path><path d="M200.274 21.8725H209.167V27.9426H200.274V40.3887H211.463V46.4588H193.795V3.96289H211.463V10.033H200.274V21.8725Z" fill="#3683BC"></path><path d="M229.014 46.4588C228.66 45.3666 228.426 44.6984 228.426 41.2393V34.5576C228.426 30.6102 227.13 29.1608 224.188 29.1608H221.944V46.4588H215.462V3.96289H225.257C231.971 3.96289 234.858 7.18041 234.858 13.7285V17.0694C234.858 21.4382 233.502 24.2934 230.62 25.6888C233.861 27.0843 234.918 30.3018 234.918 34.7349V41.2907C234.918 43.3466 234.978 44.8731 235.626 46.4511L229.014 46.4588ZM221.946 10.033V23.0855H224.479C226.895 23.0855 228.366 21.9933 228.366 18.5933V14.4044C228.366 11.3693 227.369 10.0356 225.068 10.0356L221.946 10.033Z" fill="#3683BC"></path><path d="M248.802 38.6205L253.751 3.95508H259.7L253.337 46.4587H243.679L237.319 3.96279H243.856L248.802 38.6205Z" fill="#3683BC"></path><path d="M262.701 3.96289H269.183V46.4588H262.701V3.96289Z" fill="#3683BC"></path><path d="M292.678 30.6128V36.2666C292.678 43.0639 289.382 46.9496 283.02 46.9496C276.657 46.9496 273.374 43.0588 273.374 36.2614V14.1603C273.374 7.3603 276.672 3.47461 283.032 3.47461C289.392 3.47461 292.69 7.3603 292.69 14.1603V18.2875H286.567V13.7362C286.567 10.7012 285.271 9.54729 283.209 9.54729C281.147 9.54729 279.851 10.7012 279.851 13.7362V36.6854C279.851 39.7205 281.147 40.8127 283.209 40.8127C285.271 40.8127 286.567 39.7205 286.567 36.6854V30.6128H292.678Z" fill="#3683BC"></path><path d="M303.102 21.8725H311.997V27.9426H303.102V40.3887H314.293V46.4588H296.625V3.96289H314.293V10.033H303.102V21.8725Z" fill="#3683BC"></path></svg>