<?xml version="1.0" encoding="utf-8"?>
<!-- Generator: Adobe Illustrator 26.0.0, SVG Export Plug-In . SVG Version: 6.00 Build 0)  -->
<svg version="1.1" id="Layer_1" xmlns="http://www.w3.org/2000/svg" xmlns:xlink="http://www.w3.org/1999/xlink" x="0px" y="0px"
	 viewBox="0 0 162.2 17.8" style="enable-background:new 0 0 162.2 17.8;" xml:space="preserve">
<style type="text/css">
	.st0{fill:#1635A5;}
</style>
<path class="st0" d="M15.1,6.6L15.1,6.6h-3.6c-0.1-0.5-0.2-0.9-0.4-1.2c-0.2-0.4-0.5-0.7-0.8-0.9C10,4.2,9.6,4,9.2,3.9
	C8.8,3.8,8.3,3.7,7.9,3.7l0,0C7,3.7,6.2,3.9,5.6,4.3C5,4.8,4.5,5.4,4.1,6.2S3.6,8,3.6,9.1l0,0c0,1.2,0.2,2.2,0.5,3
	C4.5,13,5,13.6,5.6,14s1.4,0.6,2.2,0.6l0,0c0.5,0,0.9-0.1,1.3-0.2c0.4-0.1,0.8-0.3,1.1-0.6c0.3-0.2,0.6-0.5,0.8-0.9
	c0.2-0.4,0.4-0.8,0.4-1.2l0,0l3.6,0c-0.1,0.8-0.3,1.5-0.7,2.2c-0.4,0.7-0.9,1.3-1.5,1.9c-0.6,0.6-1.3,1-2.2,1.3
	c-0.9,0.3-1.8,0.5-2.9,0.5l0,0c-1.5,0-2.8-0.3-4-1c-1.2-0.7-2.1-1.7-2.8-2.9C0.3,12.5,0,11,0,9.1l0,0c0-1.8,0.3-3.4,1-4.7
	s1.6-2.3,2.8-2.9c1.2-0.7,2.5-1,4-1l0,0c1,0,1.9,0.1,2.7,0.4c0.8,0.3,1.6,0.7,2.2,1.2c0.6,0.5,1.2,1.2,1.6,1.9
	C14.7,4.8,14.9,5.7,15.1,6.6z M21.1,17.8L21.1,17.8c-0.8,0-1.5-0.1-2.1-0.4c-0.6-0.3-1.1-0.7-1.5-1.2c-0.4-0.6-0.5-1.2-0.5-2.1l0,0
	c0-0.7,0.1-1.3,0.4-1.8c0.3-0.5,0.6-0.9,1.1-1.1c0.4-0.3,0.9-0.5,1.5-0.7c0.6-0.1,1.1-0.2,1.8-0.3l0,0c0.7-0.1,1.3-0.1,1.8-0.2
	s0.8-0.2,1-0.3c0.2-0.1,0.3-0.3,0.3-0.6l0,0V9c0-0.5-0.2-0.9-0.5-1.2c-0.3-0.3-0.8-0.4-1.4-0.4l0,0c-0.6,0-1.1,0.1-1.5,0.4
	c-0.4,0.3-0.6,0.6-0.7,1l0,0l-3.2-0.3c0.2-0.8,0.5-1.4,1-2c0.5-0.6,1.1-1,1.9-1.3C21,5,21.8,4.8,22.8,4.8l0,0c0.7,0,1.4,0.1,2,0.2
	c0.6,0.2,1.2,0.4,1.7,0.8c0.5,0.3,0.9,0.8,1.2,1.3c0.3,0.5,0.4,1.2,0.4,1.9l0,0v8.5h-3.3v-1.7h-0.1c-0.2,0.4-0.5,0.7-0.8,1
	c-0.3,0.3-0.7,0.5-1.2,0.7S21.7,17.8,21.1,17.8z M22.1,15.4L22.1,15.4c0.5,0,1-0.1,1.4-0.3s0.7-0.5,0.9-0.8c0.2-0.3,0.3-0.7,0.3-1.2
	l0,0v-1.3c-0.1,0.1-0.3,0.1-0.4,0.2c-0.2,0.1-0.4,0.1-0.6,0.1c-0.2,0-0.5,0.1-0.7,0.1c-0.2,0-0.4,0.1-0.6,0.1l0,0
	c-0.4,0.1-0.8,0.2-1.1,0.3c-0.3,0.1-0.5,0.3-0.7,0.5c-0.2,0.2-0.3,0.5-0.3,0.8l0,0c0,0.5,0.2,0.8,0.5,1.1
	C21.1,15.2,21.6,15.4,22.1,15.4z M41.3,8.5L41.3,8.5l-3.2,0.2C38.1,8.5,38,8.2,37.8,8c-0.2-0.2-0.4-0.4-0.7-0.5s-0.6-0.2-1-0.2l0,0
	c-0.5,0-1,0.1-1.4,0.3c-0.4,0.2-0.5,0.5-0.5,0.9l0,0c0,0.3,0.1,0.6,0.4,0.8c0.2,0.2,0.6,0.4,1.2,0.5l0,0l2.3,0.5
	c1.2,0.2,2.1,0.6,2.7,1.2c0.6,0.6,0.9,1.3,0.9,2.2l0,0c0,0.8-0.2,1.5-0.7,2.2c-0.5,0.6-1.1,1.1-2,1.4c-0.8,0.3-1.8,0.5-2.9,0.5l0,0
	c-1.7,0-3-0.3-4-1c-1-0.7-1.6-1.6-1.7-2.8l0,0l3.4-0.2c0.1,0.5,0.4,0.9,0.8,1.2c0.4,0.3,0.9,0.4,1.5,0.4l0,0c0.6,0,1.1-0.1,1.5-0.4
	c0.4-0.2,0.6-0.5,0.6-0.9l0,0c0-0.3-0.1-0.6-0.4-0.8c-0.3-0.2-0.7-0.4-1.2-0.5l0,0l-2.2-0.4c-1.2-0.2-2.1-0.7-2.7-1.3
	c-0.6-0.6-0.9-1.4-0.9-2.3l0,0c0-0.8,0.2-1.5,0.7-2.1c0.4-0.6,1.1-1,1.9-1.3C34,5,34.9,4.8,36,4.8l0,0c1.6,0,2.8,0.3,3.8,1
	C40.6,6.5,41.2,7.4,41.3,8.5z M47.3,10.3L47.3,10.3v7.2h-3.5V0.8h3.4v6.4h0.1c0.3-0.7,0.7-1.3,1.4-1.7c0.6-0.4,1.4-0.6,2.4-0.6l0,0
	c0.9,0,1.6,0.2,2.3,0.6C54,5.8,54.5,6.3,54.9,7c0.4,0.7,0.5,1.5,0.5,2.5l0,0v8h-3.5v-7.4c0-0.8-0.2-1.4-0.6-1.8
	c-0.4-0.4-1-0.7-1.7-0.7l0,0c-0.5,0-0.9,0.1-1.2,0.3c-0.4,0.2-0.7,0.5-0.8,0.9C47.4,9.3,47.3,9.7,47.3,10.3z M73.6,9.1L73.6,9.1
	c0,1.8-0.3,3.4-1,4.7c-0.7,1.3-1.6,2.3-2.8,2.9c-1.2,0.7-2.5,1-4,1l0,0c-1.5,0-2.8-0.3-4-1c-1.2-0.7-2.1-1.7-2.8-2.9
	c-0.7-1.3-1-2.8-1-4.7l0,0c0-1.8,0.3-3.4,1-4.7s1.6-2.3,2.8-2.9c1.2-0.7,2.5-1,4-1l0,0c1.5,0,2.8,0.3,4,1c1.2,0.7,2.1,1.6,2.8,2.9
	C73.2,5.8,73.6,7.3,73.6,9.1z M70,9.1L70,9.1c0-1.2-0.2-2.2-0.5-3c-0.4-0.8-0.8-1.4-1.5-1.8c-0.6-0.4-1.4-0.6-2.2-0.6l0,0
	c-0.9,0-1.6,0.2-2.2,0.6c-0.6,0.4-1.1,1-1.5,1.8c-0.4,0.8-0.5,1.8-0.5,3l0,0c0,1.2,0.2,2.2,0.5,3c0.3,0.8,0.8,1.4,1.5,1.8
	c0.6,0.4,1.4,0.6,2.2,0.6l0,0c0.9,0,1.6-0.2,2.2-0.6c0.6-0.4,1.1-1,1.5-1.8C69.8,11.3,70,10.3,70,9.1z M75.1,5h7.7v2.6h-7.7V5z
	 M80.4,17.5h-3.5V4.1c0-0.9,0.2-1.7,0.5-2.3c0.4-0.6,0.8-1,1.5-1.3C79.5,0.1,80.2,0,81,0l0,0c0.5,0,1,0,1.5,0.1
	c0.4,0.1,0.8,0.2,1,0.2l0,0L82.9,3c-0.1,0-0.3-0.1-0.5-0.1c-0.2,0-0.4,0-0.6,0l0,0c-0.5,0-0.9,0.1-1.1,0.4c-0.2,0.2-0.3,0.6-0.3,1
	l0,0V17.5z M84,5h7.7v2.6H84V5z M89.3,17.5h-3.5V4.1c0-0.9,0.2-1.7,0.5-2.3c0.4-0.6,0.8-1,1.5-1.3C88.4,0.1,89.1,0,89.9,0l0,0
	c0.5,0,1,0,1.5,0.1c0.4,0.1,0.8,0.2,1,0.2l0,0L91.7,3c-0.1,0-0.3-0.1-0.5-0.1c-0.2,0-0.4,0-0.6,0l0,0c-0.5,0-0.9,0.1-1.1,0.4
	c-0.2,0.2-0.3,0.6-0.3,1l0,0V17.5z M99.2,17.8L99.2,17.8c-1.3,0-2.4-0.3-3.3-0.8c-0.9-0.5-1.7-1.3-2.2-2.2s-0.8-2.1-0.8-3.4l0,0
	c0-1.3,0.2-2.4,0.8-3.4s1.2-1.7,2.1-2.3s2-0.8,3.2-0.8l0,0c0.8,0,1.6,0.1,2.3,0.4c0.7,0.3,1.3,0.7,1.9,1.2c0.5,0.5,1,1.2,1.2,2
	c0.3,0.8,0.5,1.7,0.5,2.8l0,0v1H94.3V10h7.3c0-0.5-0.1-0.9-0.3-1.3c-0.2-0.4-0.5-0.7-0.9-0.9c-0.4-0.2-0.8-0.3-1.3-0.3l0,0
	c-0.5,0-1,0.1-1.4,0.4c-0.4,0.2-0.7,0.6-0.9,1c-0.2,0.4-0.3,0.9-0.3,1.4l0,0v2.1c0,0.6,0.1,1.2,0.3,1.6c0.2,0.4,0.6,0.8,1,1
	c0.4,0.2,0.9,0.4,1.5,0.4l0,0c0.4,0,0.7-0.1,1.1-0.2c0.3-0.1,0.6-0.3,0.8-0.5c0.2-0.2,0.4-0.5,0.5-0.8l0,0l3.2,0.2
	c-0.2,0.8-0.5,1.4-1,2c-0.5,0.6-1.2,1-1.9,1.3C101.1,17.6,100.2,17.8,99.2,17.8z M110.7,17.5h-3.5V5h3.4v2.2h0.1
	c0.2-0.8,0.6-1.4,1.1-1.8c0.5-0.4,1.2-0.6,1.9-0.6l0,0c0.2,0,0.4,0,0.6,0c0.2,0,0.4,0,0.5,0.1l0,0V8c-0.2-0.1-0.4-0.1-0.7-0.1
	c-0.3,0-0.5-0.1-0.8-0.1l0,0c-0.5,0-1,0.1-1.4,0.3c-0.4,0.2-0.7,0.5-0.9,0.9c-0.2,0.4-0.3,0.8-0.3,1.3l0,0V17.5z M116.7,17.5V0.8
	h4.4l4.6,11.2h0.2l4.6-11.2h4.4v16.7h-3.4V6.6h-0.1l-4.3,10.8h-2.3l-4.3-10.9h-0.1v10.9H116.7z M141.2,17.8L141.2,17.8
	c-0.8,0-1.5-0.1-2.1-0.4c-0.6-0.3-1.1-0.7-1.5-1.2c-0.4-0.6-0.5-1.2-0.5-2.1l0,0c0-0.7,0.1-1.3,0.4-1.8c0.3-0.5,0.6-0.9,1.1-1.1
	c0.4-0.3,0.9-0.5,1.5-0.7c0.6-0.1,1.2-0.2,1.8-0.3l0,0c0.7-0.1,1.3-0.1,1.8-0.2c0.4-0.1,0.8-0.2,1-0.3c0.2-0.1,0.3-0.3,0.3-0.6l0,0
	V9c0-0.5-0.2-0.9-0.5-1.2c-0.3-0.3-0.8-0.4-1.4-0.4l0,0c-0.6,0-1.1,0.1-1.5,0.4c-0.4,0.3-0.6,0.6-0.7,1l0,0l-3.2-0.3
	c0.2-0.8,0.5-1.4,1-2c0.5-0.6,1.1-1,1.9-1.3c0.8-0.3,1.6-0.5,2.6-0.5l0,0c0.7,0,1.4,0.1,2,0.2c0.6,0.2,1.2,0.4,1.7,0.8
	c0.5,0.3,0.9,0.8,1.2,1.3c0.3,0.5,0.4,1.2,0.4,1.9l0,0v8.5H145v-1.7h-0.1c-0.2,0.4-0.5,0.7-0.8,1c-0.3,0.3-0.7,0.5-1.2,0.7
	C142.4,17.7,141.8,17.8,141.2,17.8z M142.2,15.4L142.2,15.4c0.5,0,1-0.1,1.4-0.3c0.4-0.2,0.7-0.5,0.9-0.8c0.2-0.3,0.3-0.7,0.3-1.2
	l0,0v-1.3c-0.1,0.1-0.3,0.1-0.4,0.2c-0.2,0.1-0.4,0.1-0.6,0.1c-0.2,0-0.5,0.1-0.7,0.1c-0.2,0-0.4,0.1-0.6,0.1l0,0
	c-0.4,0.1-0.8,0.2-1.1,0.3c-0.3,0.1-0.5,0.3-0.7,0.5c-0.2,0.2-0.2,0.5-0.2,0.8l0,0c0,0.5,0.2,0.8,0.5,1.1
	C141.2,15.2,141.7,15.4,142.2,15.4z M150.3,5h3.6l2.3,4.4l2.4-4.4h3.6l-3.6,6.3l3.7,6.3h-3.6l-2.5-4.3l-2.4,4.3h-3.6l3.7-6.3
	L150.3,5z"/>
</svg>
