<?xml version="1.0" encoding="utf-8"?>
<!-- Generator: Adobe Illustrator 23.1.0, SVG Export Plug-In . SVG Version: 6.00 Build 0)  -->
<!DOCTYPE svg PUBLIC "-//W3C//DTD SVG 1.1//EN" "http://www.w3.org/Graphics/SVG/1.1/DTD/svg11.dtd" [
	<!ENTITY ns_extend "http://ns.adobe.com/Extensibility/1.0/">
	<!ENTITY ns_ai "http://ns.adobe.com/AdobeIllustrator/10.0/">
	<!ENTITY ns_graphs "http://ns.adobe.com/Graphs/1.0/">
	<!ENTITY ns_vars "http://ns.adobe.com/Variables/1.0/">
	<!ENTITY ns_imrep "http://ns.adobe.com/ImageReplacement/1.0/">
	<!ENTITY ns_sfw "http://ns.adobe.com/SaveForWeb/1.0/">
	<!ENTITY ns_custom "http://ns.adobe.com/GenericCustomNamespace/1.0/">
	<!ENTITY ns_adobe_xpath "http://ns.adobe.com/XPath/1.0/">
]>
<svg version="1.1" id="Layer_1" xmlns:x="&ns_extend;" xmlns:i="&ns_ai;" xmlns:graph="&ns_graphs;"
	 xmlns="http://www.w3.org/2000/svg" xmlns:xlink="http://www.w3.org/1999/xlink" x="0px" y="0px" viewBox="0 0 307.2 150.7"
	 style="enable-background:new 0 0 307.2 150.7;" xml:space="preserve">
<style type="text/css">
	.st0{fill:#EC008C;}
</style>
<metadata>
	<sfw  xmlns="&ns_sfw;">
		<slices></slices>
		<sliceSourceBounds  bottomLeftOrigin="true" height="140" width="300" x="3" y="1267.6"></sliceSourceBounds>
	</sfw>
</metadata>
<g>
	<rect x="255" y="71.8" class="st0" width="9.2" height="3.3"/>
	<rect x="255" y="79.6" class="st0" width="9.2" height="3.3"/>
	<rect x="255" y="87.5" class="st0" width="9.2" height="3.3"/>
	<polygon class="st0" points="214.3,51 190.7,60.2 190.7,63.5 215.2,55.3 	"/>
	<polygon class="st0" points="191,66.1 191,69.4 216.9,63.4 215.9,59.1 	"/>
	<polygon class="st0" points="190.9,71 190.9,74.3 218.6,71.4 217.6,65.9 	"/>
	<polygon class="st0" points="190.8,75.7 190.9,79.6 220.1,78.2 219.2,73.5 	"/>
	<polygon class="st0" points="221.6,85.1 220.7,80.6 191.3,81 191.2,84.2 	"/>
	<polygon class="st0" points="181,38.8 179,28.3 147.4,4 149.1,15 	"/>
	<polygon class="st0" points="154.4,47.4 185.4,68.8 184.2,59 152.9,37.6 	"/>
	<polygon class="st0" points="157.1,63.7 187.8,84.2 186.3,74.4 155.3,53 	"/>
	<polygon class="st0" points="151.8,31 183.3,54.2 181.8,45 150.3,21.8 	"/>
	<polygon class="st0" points="122.1,57.8 94.6,45.9 94.6,50.6 122.5,61.2 	"/>
	<polygon class="st0" points="94.9,58 122.7,66.7 122.7,63.4 94.9,53.8 	"/>
	<polygon class="st0" points="95.3,66.3 123,72.3 123,68.4 95.3,61.6 	"/>
	<polygon class="st0" points="95.5,74.4 123.2,77.3 123.2,74.2 95.5,69.5 	"/>
	<polygon class="st0" points="95.8,81.5 123.6,82.2 123.4,78.9 95.9,76.9 	"/>
	<rect x="64.4" y="62.4" class="st0" width="9.2" height="3.3"/>
	<polygon class="st0" points="84.3,67.7 74.2,62.4 74.2,65.7 84.3,71 	"/>
	<rect x="54.5" y="66.4" class="st0" width="9.2" height="3.3"/>
	<rect x="64.4" y="66.4" class="st0" width="9.2" height="3.3"/>
	<rect x="64.4" y="70.3" class="st0" width="9.2" height="3.3"/>
	<polygon class="st0" points="84.3,75.6 74.2,70.3 74.2,73.6 84.3,78.9 	"/>
	<rect x="54.5" y="74.2" class="st0" width="9.2" height="3.3"/>
	<rect x="64.4" y="74.2" class="st0" width="9.2" height="3.3"/>
	<rect x="64.4" y="78.1" class="st0" width="9.2" height="3.3"/>
	<polygon class="st0" points="84.3,83.5 74.2,78.1 74.2,81.5 84.3,86.8 	"/>
	<rect x="64.4" y="82.1" class="st0" width="9.2" height="3.3"/>
	<rect x="54.5" y="82.1" class="st0" width="9.2" height="3.3"/>
	<polygon class="st0" points="84.3,79.6 74.2,74.2 74.2,77.5 84.3,82.8 	"/>
	<polygon class="st0" points="84.3,71.7 74.2,66.3 74.2,69.6 84.3,74.9 	"/>
	<rect x="245.2" y="67.9" class="st0" width="9.2" height="3.3"/>
	<rect x="235.3" y="67.9" class="st0" width="9.2" height="3.3"/>
	<rect x="245.2" y="71.8" class="st0" width="9.2" height="3.3"/>
	<rect x="245.2" y="75.7" class="st0" width="9.2" height="3.2"/>
	<rect x="235.3" y="75.7" class="st0" width="9.2" height="3.2"/>
	<rect x="245.2" y="79.6" class="st0" width="9.2" height="3.3"/>
	<rect x="245.2" y="83.5" class="st0" width="9.2" height="3.3"/>
	<rect x="235.3" y="83.5" class="st0" width="9.2" height="3.3"/>
	<rect x="245.2" y="87.5" class="st0" width="9.2" height="3.3"/>
	<rect x="235.3" y="87.5" class="st0" width="9.2" height="3.3"/>
	<rect x="235.3" y="79.6" class="st0" width="9.2" height="3.3"/>
	<rect x="235.3" y="71.8" class="st0" width="9.2" height="3.3"/>
	<path class="st0" d="M153.2,98.1c58.6,0,103.4,4.4,131,10.8l18.9,4.2c-19.1-10.2-42.8-17.5-70.1-22l-8.5-34.5c0,0-8.6-6.7-9.2-5.9
		c-0.6,0.7,6.9,31.3,8.8,39c-0.4-0.1-0.9-0.1-1.3-0.2l-0.7-2.3L193.4,86l0.1,0.5c-3.4-0.2-6.9-0.5-10.4-0.6L158,68.4l1.6,10.1
		l9.7,6.9c-3.2-0.1-6.5-0.1-9.8-0.2L145.5,4l-23,21l7.6,60.5c-2.1,0.1-4.2,0.2-6.3,0.3v-1.5l-27.6,0.8V88C96,88,95.7,88,95.5,88
		l-2-42.1l-7.9,5.4l0.7,37.8c-0.7,0.1-1.3,0.2-2,0.3v-2l-10.1-5.4v3.3l8.1,4.3c-31.3,4.4-58,12.1-79.3,23.4l12.6-2
		C42,104,94.6,98.1,153.2,98.1"/>
	<polygon points="124.6,109.1 114.9,122.5 105.2,109.1 105.2,129.5 109.2,129.5 109.2,121.2 114.9,129.1 120.7,121.2 120.7,129.5 
		124.6,129.5 	"/>
	<path d="M211.9,112.4c-2,2-2.9,4.3-2.9,7.1c0,2.8,1,5.2,2.9,7.1c2,1.9,4.3,2.9,7.1,2.9c3.1,0,5.5-1.3,7.1-2.9l-2.8-2.8
		c-1.2,1.2-2.6,1.7-4.3,1.7c-1.7,0-3.1-0.6-4.3-1.7c-1.2-1.2-1.8-2.6-1.8-4.3c0-1.7,0.6-3.1,1.8-4.3c1.2-1.2,2.6-1.8,4.3-1.8
		c1.6,0,3.1,0.6,4.3,1.8l2.8-2.9c-1.6-1.6-4.1-2.9-7.1-2.9v0C216.2,109.5,213.8,110.4,211.9,112.4"/>
	<path d="M188.6,109.5c-2.8,0-5.1,1-7.1,3c-2,2-2.9,4.3-2.9,7.1c0,2.8,1,5.2,2.9,7.1c2,1.9,4.3,2.9,7.1,2.9c2.8,0,5.2-1,7.1-2.9
		c2-2,2.9-4.3,2.9-7.1c0-2.8-1-5.2-2.9-7.1C193.7,110.4,191.4,109.5,188.6,109.5 M192.8,123.8c-1.2,1.2-2.6,1.8-4.3,1.8
		c-1.7,0-3.1-0.6-4.3-1.8c-1.2-1.2-1.8-2.6-1.8-4.3c0-1.6,0.6-3.1,1.8-4.3c1.2-1.2,2.6-1.7,4.3-1.7c1.7,0,3.1,0.6,4.3,1.7
		c1.2,1.2,1.8,2.6,1.8,4.3C194.6,121.2,194.1,122.6,192.8,123.8"/>
	<polygon points="246.1,129.5 246.1,113.6 251,113.6 251,109.6 237.2,109.6 237.2,113.6 242.1,113.6 242.1,129.5 	"/>
	<polygon points="263.9,129.5 263.9,120.9 270.1,109.6 265.6,109.6 261.9,116.5 258.3,109.6 253.8,109.6 260,120.9 260,129.5 	"/>
	<path d="M173.4,120.4c0.9-1.2,1.2-2.5,1.2-3.8v-0.5c0-2.2-0.7-3.3-1.9-4.5c-1.2-1.2-3-2-5.2-2h-6.5v19.8h4v-8.8l5.7,8.8h4.9
		l-4.6-7.2C172.2,121.8,172.8,121.4,173.4,120.4 M168,119h-1.4h-1.5v-5.5h2.2c1,0,2,0.3,2.5,0.8c0.5,0.5,0.8,1.2,0.8,1.9
		C170.6,117.8,169.4,119,168,119"/>
	<rect x="229.7" y="109.6" width="4" height="19.9"/>
	<polygon points="56.2,129.5 68.1,129.5 68.1,125.5 60.1,125.5 60.1,121.5 66.1,121.5 66.1,117.5 60.1,117.5 60.1,113.5 68.1,113.5 
		68.1,109.6 56.2,109.6 	"/>
	<polygon points="86.3,119 82.6,109.6 78.9,119 75.2,109.6 70.9,109.6 78.9,129.9 82.6,120 86.3,129.9 94.2,109.6 89.9,109.6 	"/>
	<polygon points="51.8,129.8 51.8,109.6 47.8,109.6 47.8,120.6 35.9,109.2 35.9,129.5 39.9,129.5 39.9,118.4 	"/>
	<polygon points="140.9,113.5 140.9,109.6 129,109.6 129,129.5 140.9,129.5 140.9,125.5 132.9,125.5 132.9,121.5 138.9,121.5 
		138.9,117.5 132.9,117.5 132.9,113.5 	"/>
	<polygon points="152.7,113.6 157.5,113.6 157.5,109.6 143.8,109.6 143.8,113.6 148.6,113.6 148.6,129.5 152.7,129.5 	"/>
	<polygon points="68.7,143.9 69.2,143.9 69.2,137.5 68.7,137.5 68.3,137.5 68.3,140.1 65,140.1 65,137.5 64.5,137.5 64.1,137.5 
		64.1,143.9 64.6,143.9 65,143.9 65,140.9 68.3,140.9 68.3,143.9 	"/>
	<polygon points="135.4,142.7 132.3,137.5 131.7,137.5 131.2,137.5 131.2,143.9 131.6,143.9 132,143.9 132,138.7 135.3,143.9 
		135.8,143.9 136.2,143.9 136.2,137.5 135.8,137.5 135.4,137.5 	"/>
	<path d="M93.5,137.5H93v4c0,0.8,0.2,1.4,0.6,1.8c0.4,0.4,1.1,0.6,1.8,0.6c0.8,0,1.4-0.2,1.8-0.7c0.4-0.4,0.7-1,0.7-1.8v-4h-0.5
		h-0.4v3.9c0,0.6-0.1,1-0.4,1.4c-0.3,0.3-0.7,0.5-1.2,0.5c-0.5,0-0.9-0.2-1.2-0.5c-0.3-0.3-0.4-0.8-0.4-1.4v-3.9H93.5z"/>
	<path d="M148.1,138.1c0.5,0,0.9,0.1,1.3,0.4c0.3,0.2,0.5,0.5,0.6,1h0.8c-0.1-0.6-0.4-1.1-0.9-1.5c-0.5-0.4-1.1-0.6-1.8-0.6
		c-0.9,0-1.6,0.3-2.2,0.9c-0.6,0.6-0.8,1.4-0.8,2.4c0,1,0.2,1.8,0.8,2.4c0.6,0.6,1.3,0.9,2.1,0.9c0.9,0,1.6-0.3,2.1-0.9l0.1,0
		l0.2,0.8h0.5v-3.3h-2.7v0.7h2v0.1c0,0.2,0,0.4-0.1,0.6c0,0.2-0.1,0.4-0.2,0.5c0,0.1-0.1,0.1-0.2,0.2c-0.4,0.5-0.9,0.7-1.6,0.7
		c-0.7,0-1.2-0.2-1.6-0.7c-0.4-0.4-0.6-1.1-0.6-1.9c0-0.8,0.2-1.4,0.6-1.9C147,138.4,147.5,138.1,148.1,138.1"/>
	<path d="M110.8,143c-0.3,0.2-0.7,0.3-1.2,0.3c-0.6,0-1-0.1-1.3-0.4c-0.3-0.2-0.5-0.6-0.5-1.1H107v0c0,0.7,0.2,1.2,0.7,1.6
		c0.5,0.4,1.1,0.6,1.9,0.6c0.7,0,1.3-0.2,1.8-0.5c0.4-0.4,0.6-0.8,0.6-1.4c0-0.5-0.1-0.9-0.4-1.1c-0.3-0.3-0.7-0.5-1.3-0.6l-1.1-0.2
		c-0.5-0.1-0.9-0.2-1-0.4c-0.2-0.1-0.2-0.3-0.2-0.5c0-0.4,0.1-0.6,0.4-0.8c0.2-0.2,0.6-0.3,1.1-0.3c0.5,0,0.9,0.1,1.1,0.3
		c0.2,0.2,0.4,0.5,0.5,0.9h0.8c0-0.6-0.2-1.1-0.7-1.5c-0.4-0.4-1-0.5-1.7-0.5c-0.7,0-1.2,0.2-1.7,0.5c-0.4,0.4-0.6,0.8-0.6,1.4
		c0,0.4,0.1,0.7,0.4,1c0.2,0.2,0.6,0.4,1.2,0.5l1.1,0.3c0.5,0.1,0.9,0.2,1.1,0.4c0.2,0.2,0.2,0.4,0.2,0.7
		C111.2,142.6,111.1,142.8,110.8,143"/>
	<polygon points="121.1,143.9 121.5,143.9 121.9,143.9 121.9,137.5 121.5,137.5 121.1,137.5 	"/>
	<path d="M81.1,137.4c-0.9,0-1.7,0.3-2.2,0.9c-0.6,0.6-0.9,1.4-0.9,2.4c0,1,0.3,1.8,0.9,2.4c0.6,0.6,1.3,0.9,2.2,0.9
		c0.9,0,1.7-0.3,2.2-0.9c0.6-0.6,0.9-1.4,0.9-2.4c0-1-0.3-1.8-0.9-2.4C82.8,137.7,82,137.4,81.1,137.4 M82.7,142.6
		c-0.4,0.5-1,0.7-1.6,0.7c-0.7,0-1.2-0.2-1.6-0.7c-0.4-0.5-0.6-1.1-0.6-1.9c0-0.8,0.2-1.4,0.6-1.9c0.4-0.5,0.9-0.7,1.6-0.7
		c0.6,0,1.2,0.2,1.6,0.7c0.4,0.5,0.6,1.1,0.6,1.9C83.3,141.5,83.1,142.1,82.7,142.6"/>
	<polygon points="227.5,143.9 228,143.9 228,137.5 227.4,137.5 226.7,137.5 224.9,142.9 223.1,137.5 222.5,137.5 221.9,137.5 
		221.9,143.9 222.3,143.9 222.7,143.9 222.7,138.5 222.7,138.5 224.5,143.9 224.9,143.9 225.3,143.9 227.1,138.5 227.1,143.9 	"/>
	<polygon points="237.2,143.9 241.9,143.9 241.9,143.5 241.9,143.1 238.1,143.1 238.1,141 241.5,141 241.5,140.6 241.5,140.2 
		238.1,140.2 238.1,138.3 241.8,138.3 241.8,137.9 241.8,137.5 237.2,137.5 	"/>
	<polygon points="208.3,143.9 213,143.9 213,143.5 213,143.1 209.1,143.1 209.1,141 212.6,141 212.6,140.6 212.6,140.2 209.1,140.2 
		209.1,138.3 212.9,138.3 212.9,137.9 212.9,137.5 208.3,137.5 	"/>
	<path d="M169.7,143c-0.3,0.2-0.7,0.3-1.2,0.3c-0.6,0-1-0.1-1.3-0.4c-0.3-0.2-0.5-0.6-0.5-1.1h-0.8v0c0,0.7,0.2,1.2,0.7,1.6
		c0.5,0.4,1.1,0.6,1.9,0.6c0.7,0,1.3-0.2,1.8-0.5c0.4-0.4,0.6-0.8,0.6-1.4c0-0.5-0.1-0.9-0.4-1.1c-0.3-0.3-0.7-0.5-1.3-0.6l-1.1-0.2
		c-0.5-0.1-0.9-0.2-1-0.4c-0.2-0.1-0.2-0.3-0.2-0.5c0-0.4,0.1-0.6,0.4-0.8c0.2-0.2,0.6-0.3,1.1-0.3c0.5,0,0.9,0.1,1.1,0.3
		c0.2,0.2,0.4,0.5,0.5,0.9h0.8c0-0.6-0.2-1.1-0.7-1.5c-0.4-0.4-1-0.5-1.7-0.5c-0.7,0-1.2,0.2-1.7,0.5c-0.4,0.4-0.6,0.8-0.6,1.4
		c0,0.4,0.1,0.7,0.4,1c0.2,0.2,0.6,0.4,1.2,0.5l1.1,0.3c0.5,0.1,0.9,0.2,1.1,0.4c0.2,0.2,0.2,0.4,0.2,0.7
		C170.1,142.6,169.9,142.8,169.7,143"/>
	<path d="M182.5,138.1c0.5,0,0.9,0.1,1.2,0.4c0.3,0.2,0.5,0.5,0.6,1h0.8c-0.1-0.6-0.4-1.1-0.8-1.5c-0.5-0.4-1.1-0.5-1.8-0.5
		c-0.9,0-1.6,0.3-2.2,0.9c-0.5,0.6-0.8,1.4-0.8,2.5c0,1,0.3,1.8,0.8,2.4c0.5,0.6,1.2,0.9,2.1,0.9c0.7,0,1.3-0.2,1.8-0.7
		c0.5-0.4,0.8-1.1,0.9-1.8h-0.9c-0.1,0.6-0.3,1-0.6,1.3c-0.3,0.3-0.7,0.5-1.2,0.5c-0.7,0-1.2-0.2-1.5-0.7c-0.4-0.4-0.5-1.1-0.5-1.9
		c0-0.8,0.2-1.4,0.6-1.9C181.4,138.4,181.8,138.1,182.5,138.1"/>
	<polygon points="198.6,143.9 199,143.9 199,137.5 198.6,137.5 198.2,137.5 198.2,140.1 194.9,140.1 194.9,137.5 194.4,137.5 
		194,137.5 194,143.9 194.4,143.9 194.9,143.9 194.9,140.9 198.2,140.9 198.2,143.9 	"/>
</g>
</svg>
