<?xml version="1.0" encoding="utf-8"?>
<!-- Generator: Adobe Illustrator 26.0.0, SVG Export Plug-In . SVG Version: 6.00 Build 0)  -->
<svg version="1.1" id="Layer_1" xmlns="http://www.w3.org/2000/svg" xmlns:xlink="http://www.w3.org/1999/xlink" x="0px" y="0px"
	 viewBox="0 0 821 153" style="enable-background:new 0 0 821 153;" xml:space="preserve">
<style type="text/css">
	.st0{fill:#FF4747;}
</style>
<path class="st0" d="M112.3,132c-0.8,0-1.5,0-2.3-0.1c-11.5,8.5-27.8,6.1-36.4-5.5c-0.6-0.8-1.1-1.6-1.6-2.4L27.5,47
	c-3.8-6.4-3.8-14.3,0-20.7c3.3-5.9,9.3-9.7,16-10.2l0.3-0.7c0.5-0.8,1-1.6,1.6-2.4c3-4.5,7-8.3,11.7-11.1H45.5
	c-12.4,0-24,6.6-30.2,17.4c-6.4,10.8-6.4,24.2,0,34.9l44.5,77c11.1,19.2,35.6,25.8,54.9,14.8c6.1-3.5,11.2-8.6,14.8-14.8l2.3-4.2
	c-4.9,2.7-10.2,4.3-15.7,4.9C114.7,132,113.4,132,112.3,132z"/>
<path class="st0" d="M132.1,102.8c-0.9,0-1.9-0.1-2.8-0.1c-0.6,1-1.3,2-2.1,2.9c-0.2,0.3-0.5,0.6-0.8,0.9c-0.1,0.1-0.2,0.2-0.2,0.2
	c-0.2,0.1-0.3,0.3-0.5,0.4c-0.3,0.2-0.5,0.5-0.8,0.7c-0.5,0.4-1,0.8-1.5,1.2l0,0c-1,0.6-2.1,1.2-3,1.6c-0.5,0.2-1,0.5-1.6,0.7
	c-1.2,0.5-2.5,0.7-3.8,0.8c-0.9,0.1-1.8,0.1-2.7,0.1c-2.6,0-5.2-0.5-7.6-1.5c-4-1.6-7.3-4.6-9.5-8.3l-34.1-59
	c-0.2-0.3-0.4-0.6-0.6-1c-0.6-1.1-1-2.2-1.3-3.4c-0.4-1.5-0.6-3.1-0.6-4.6c0-2,0.3-3.9,0.9-5.8c0.3-1.2,0.8-2.2,1.5-3.2
	c2.2-3.8,5.7-6.7,9.8-8.1c1.1-0.4,2.3-0.7,3.5-0.8c0.4-0.1,0.8-0.1,1.2-0.1c0.5,0,0.8-0.1,1.2-0.1h3.5c0.3-0.7,0.6-1.3,1-1.9
	c0.1-0.3,0.3-0.6,0.5-0.8l0.1-0.2l0.1-0.1L82,13c2.8-4.5,6.6-8.3,11.1-11.2H76.6c-2.7,0-5.4,0.3-8,0.9c-0.7,0.1-1.3,0.3-2,0.5
	C65.3,3.5,64.1,4,63,4.6c-0.6,0.2-1.2,0.6-1.7,0.8C59.8,6.2,58.5,7,57.2,8l-1.4,1c-2.3,1.9-4.3,4.2-6,6.6l-1.4,2.1
	c-1.5,2.5-2.6,5.2-3.2,8c-0.4,1.4-0.7,2.8-0.8,4.2c-0.4,2.8-0.4,5.6,0,8.3c0.1,0.7,0.2,1.4,0.3,2.1c0.2,1.4,0.7,2.8,1,4.2
	c0.5,1.3,1,2.6,1.6,3.9c0.3,0.7,0.7,1.3,1,2l34.1,59c4.2,7.2,10.8,12.6,18.6,15.3l2.1,0.7c1.4,0.4,2.9,0.7,4.4,0.8
	c1.5,0.2,3,0.3,4.5,0.2c1,0,2.2-0.1,3.2-0.1c11-1,20.8-7.3,26.3-16.9l6-10.5c-4.6,2.6-9.7,3.9-14.9,3.9L132.1,102.8z"/>
<path class="st0" d="M58.9,36.6c-0.1-0.8-0.1-1.5-0.1-2.3C58.8,35.1,58.8,35.8,58.9,36.6z"/>
<path class="st0" d="M60.6,42.3c-0.5-1.1-1-2.2-1.3-3.3C59.6,40.1,60.1,41.2,60.6,42.3z"/>
<path class="st0" d="M58.9,36.6c0.1,0.8,0.3,1.6,0.5,2.3C59.1,38.1,59,37.4,58.9,36.6z"/>
<path class="st0" d="M104.7,110.6c-4-1.6-7.3-4.6-9.5-8.3C97.3,106,100.7,109,104.7,110.6z"/>
<path class="st0" d="M179.4,31.3c0-0.1,0-0.3-0.1-0.4c-0.5-4.2-1.9-8.3-4.1-11.9c0-0.1-0.1-0.1-0.1-0.1c-1.1-1.9-2.3-3.7-3.8-5.3
	l-0.2-0.2c-0.1-0.2-0.3-0.4-0.5-0.6c-2.5-2.8-5.5-5.2-8.9-6.9c-3.9-2-8.1-3.3-12.4-3.8c-1.8-0.2-3.6-0.4-5.4-0.4h-31.3
	c-0.8,0-1.5,0-2.3,0.1c-0.2,0-0.4,0.1-0.6,0.1h-0.2C100,2.8,91.6,8,86.6,16c-0.1,0.1-0.1,0.1-0.1,0.2c-0.1,0.2-0.3,0.6-0.5,0.8
	c-0.3,0.7-0.7,1.3-1,1.9c-0.4,0.9-0.8,1.8-1.2,2.7l-0.3,1c-0.2,0.6-0.4,1.3-0.6,2c-0.2,0.8-0.4,1.5-0.5,2.3c-0.8,4.5-0.7,9,0.5,13.4
	c0.1,0.7,0.3,1.4,0.6,2c0.7,2,1.5,3.9,2.5,5.7L106,82.4c4.3,7.6,11.8,13,20.4,14.6c0.9,0.2,2,0.2,2.9,0.5c0.9,0.1,1.9,0.1,2.8,0.1
	h0.5c8.7-0.1,16.9-4,22.4-10.7c0-0.1,0-0.1,0.1-0.1c0,0,0,0,0,0l0.1-0.1c0.1-0.1,0.1-0.1,0.1-0.2c1.1-1.3,2.1-2.7,2.9-4.2l16.1-28
	c3-5.1,4.7-10.8,5.1-16.7v-0.2c0.1-0.6,0.1-1.2,0.1-1.7V35c0.1-0.5,0.2-0.9,0.1-1.4c0-0.2,0-0.5-0.1-0.7
	C179.4,32.4,179.4,31.8,179.4,31.3z M161.9,47l-16.1,28c-2.8,4.9-8,7.9-13.6,7.9c-5.6,0-10.9-3-13.7-7.9L98.7,40.5
	c-2.9-5.1-2.9-11.3,0-16.3c2.7-4.7,7.6-7.8,13-8.1c0.3,0,0.7-0.1,1.2-0.1h31.3c7.3,0,14.1,3.9,17.8,10.3
	C165.6,32.9,165.2,42.2,161.9,47z"/>
<path class="st0" d="M274.8,53.5c-4.6,0-8.7,3-10.2,7.4l-16.8,52l-16.9-52c-1.4-4.4-5.5-7.4-10.2-7.4h-0.9c-1.3,0-2.6,0.2-3.8,0.7
	c-5.5,2.1-8.2,8.3-6.1,13.8l21.3,55.8c2.6,6.7,9,11.2,16.2,11.3c7.2,0,13.7-4.5,16.2-11.2l21.2-56c2.1-5.5-0.6-11.6-6-13.7
	C277.4,53.7,276.1,53.4,274.8,53.5L274.8,53.5z"/>
<path class="st0" d="M332.9,52.6c-24.9,0-42,16.6-42,41.9c0,24.8,16.5,41.4,42.7,41.4c9.4,0.2,18.7-2.4,26.7-7.4
	c0.4-0.3,0.9-0.6,1.2-1c3.6-3.5,3.7-9.2,0.2-12.7c0,0,0,0,0,0c-2.9-3-7.5-3.6-11-1.4c-4.6,2.9-9.9,4.4-15.3,4.4
	c-10.4,0-18.3-6.1-21-16.4h45.6c0.5,0,1.1,0,1.6-0.1c7-0.9,11.9-7.3,11-14.2C369.9,65.5,356.6,52.6,332.9,52.6z M313.9,87.5
	c1.7-10.8,8.8-17.7,19.1-17.7c10.8,0,17.7,6.9,18,17.7H313.9z"/>
<path class="st0" d="M425.5,55.1c-5.9,2.7-10.7,7.3-13.8,12.9l-0.1-3v0c0-6.4-5.2-11.6-11.7-11.6h-0.1c-6.4,0-11.6,5.2-11.6,11.7
	v58.4c0,6.4,5.3,11.6,11.7,11.6h0.1c6.4,0,11.6-5.2,11.6-11.7V95.7c0-11.2,6.9-19.3,18.5-21c4.8-0.6,8.5-4.6,8.6-9.5V64
	C438.7,57.2,431.7,52.3,425.5,55.1z"/>
<path class="st0" d="M468.5,75.5c0-4.2,3.9-6,9.4-6c5,0,11.1,1.5,17.5,4.3c4.3,1.8,9.2,0,11.3-4.2l0.2-0.3c0.1-0.2,0.2-0.3,0.2-0.5
	c2-4.5-0.1-9.8-4.6-11.7c-7.5-3.1-15.4-4.7-23.5-4.8c-17.7,0-32.1,8.6-32.1,25.4c0,28.7,42.3,21.6,42.3,34.7c0,4.4-4.4,6.4-10.3,6.4
	c-7.2-0.2-14.3-2-20.7-5.3l-0.2-0.1c-4.4-2.1-9.6-0.3-11.7,4.1c0,0,0,0,0,0c-2.1,4.3-0.4,9.4,3.8,11.7c8.7,4.5,18.3,6.8,28.1,6.7
	c18.5,0,33.2-8.8,33.2-25.4C511.7,81.5,468.5,87.7,468.5,75.5z"/>
<ellipse class="st0" cx="538.8" cy="30.1" rx="12.6" ry="13.1"/>
<path class="st0" d="M538.8,53.4L538.8,53.4c-6.5,0-11.7,5.2-11.7,11.7v58.3c0,6.4,5.3,11.6,11.7,11.7l0,0c6.4,0,11.6-5.2,11.6-11.7
	c0,0,0,0,0,0V65C550.5,58.6,545.3,53.4,538.8,53.4z"/>
<path class="st0" d="M638.8,53.4c-6.4,0-11.6,5.2-11.6,11.5c0,0,0,0,0,0v28.8c0,11.9-6.8,20.7-18,20.8c-9.4,0-15.3-6.2-15.3-16.5V65
	c0-6.4-5.2-11.6-11.5-11.6c0,0,0,0,0,0h-0.1c-6.4,0-11.6,5.2-11.6,11.6v39.7c0,19.2,11.3,31.2,29.4,31.2c12.3,0,21.6-5,27.3-15.3
	v2.8c0,6.4,5.1,11.6,11.5,11.6h0.2c6.3-0.1,11.3-5.4,11.2-11.7c0,0,0,0,0,0V64.9C650.3,58.5,645.1,53.4,638.8,53.4z"/>
<path class="st0" d="M781.5,52.7c-13.8,0.2-24,6.2-29.4,18.8c-3.9-11.9-13.9-18.8-27.6-18.8c-12.4,0.1-21.9,5-27.7,15v-2.4
	c0-6.4-5.2-11.6-11.7-11.6c0,0,0,0,0,0h-0.1c-6.4,0-11.6,5.2-11.6,11.7v58.3c0,6.4,5.2,11.5,11.5,11.6h0.1c6.4,0,11.6-5.2,11.6-11.6
	V94.8c0-11.9,6.8-20.7,18.2-20.8c9.6,0,15.6,6.1,15.6,16.7v32.8c-0.2,6.4,4.8,11.7,11.2,11.9s11.7-4.8,11.9-11.2c0-0.2,0-0.5,0-0.7
	V94.7c0-11.9,6.8-20.7,18-20.8c9.7,0,15.7,6.1,15.7,16.7v32.8c0.2,6.4,5.5,11.4,11.9,11.2c6.1-0.2,11-5.1,11.2-11.2V83.7
	C810.5,64.6,799,52.4,781.5,52.7z"/>
</svg>
